<?xml version="1.0" encoding="UTF-8"?>
<!DOCTYPE svg PUBLIC "-//W3C//DTD SVG 1.1//EN" "http://www.w3.org/Graphics/SVG/1.1/DTD/svg11.dtd">
<svg xmlns="http://www.w3.org/2000/svg" version="1.1" width="395px" height="112px" style="shape-rendering:geometricPrecision; text-rendering:geometricPrecision; image-rendering:optimizeQuality; fill-rule:evenodd; clip-rule:evenodd" xmlns:xlink="http://www.w3.org/1999/xlink">
<g><path style="opacity:0.967" fill="#60556d" d="M 49.5,4.5 C 55.6122,6.61268 61.9455,8.27935 68.5,9.5C 70.7837,9.97516 72.7837,10.9752 74.5,12.5C 74.0831,13.1239 73.4164,13.4573 72.5,13.5C 63.2321,10.8497 53.8988,8.51636 44.5,6.5C 45.5521,4.74395 47.2188,4.07729 49.5,4.5 Z"/></g>
<g><path style="opacity:0.612" fill="#605768" d="M 49.5,4.5 C 56.3833,4.46949 62.7166,6.13616 68.5,9.5C 61.9455,8.27935 55.6122,6.61268 49.5,4.5 Z"/></g>
<g><path style="opacity:0.965" fill="#605273" d="M 44.5,6.5 C 53.8988,8.51636 63.2321,10.8497 72.5,13.5C 73.4164,13.4573 74.0831,13.1239 74.5,12.5C 76.5,13.8333 78.1667,15.5 79.5,17.5C 74.8333,16.5 70.1667,15.5 65.5,14.5C 61.5957,13.1906 57.5957,12.1906 53.5,11.5C 50.6324,10.36 47.6324,9.35998 44.5,8.5C 44.5,7.83333 44.5,7.16667 44.5,6.5 Z"/></g>
<g><path style="opacity:1" fill="#604f79" d="M 44.5,8.5 C 47.6324,9.35998 50.6324,10.36 53.5,11.5C 52.209,11.2627 51.209,11.596 50.5,12.5C 48.5,12.1667 46.5,11.8333 44.5,11.5C 44.5,10.5 44.5,9.5 44.5,8.5 Z"/></g>
<g><path style="opacity:0.948" fill="#5f4391" d="M 25.5,16.5 C 20.1674,15.1669 14.8341,13.8335 9.5,12.5C 13.1957,9.74512 17.1957,9.24512 21.5,11C 23.4641,12.451 24.7974,14.2843 25.5,16.5 Z"/></g>
<g><path style="opacity:1" fill="#5f4c7f" d="M 44.5,11.5 C 46.5,11.8333 48.5,12.1667 50.5,12.5C 50.5,13.5 50.5,14.5 50.5,15.5C 48.5648,14.8505 46.5648,14.5172 44.5,14.5C 44.5,13.5 44.5,12.5 44.5,11.5 Z"/></g>
<g><path style="opacity:0.933" fill="#5f3f98" d="M 9.5,12.5 C 14.8341,13.8335 20.1674,15.1669 25.5,16.5C 26.404,17.209 26.7373,18.209 26.5,19.5C 24.2362,18.7814 21.9029,18.448 19.5,18.5C 18.2196,17.0687 16.5529,16.4021 14.5,16.5C 12.1133,16.0879 10.1133,15.0879 8.5,13.5C 8.5,12.8333 8.83333,12.5 9.5,12.5 Z"/></g>
<g><path style="opacity:1" fill="#5f4886" d="M 44.5,14.5 C 46.5648,14.5172 48.5648,14.8505 50.5,15.5C 50.5,16.5 50.5,17.5 50.5,18.5C 48.5786,17.6373 46.5786,16.9707 44.5,16.5C 44.5,15.8333 44.5,15.1667 44.5,14.5 Z"/></g>
<g><path style="opacity:0.921" fill="#604f79" d="M 65.5,14.5 C 70.1667,15.5 74.8333,16.5 79.5,17.5C 81.5,17.5 82.5,18.5 82.5,20.5C 78.8026,19.9922 75.1359,19.3255 71.5,18.5C 69.1184,17.6493 67.1184,16.316 65.5,14.5 Z"/></g>
<g><path style="opacity:0.942" fill="#5f3d9e" d="M 8.5,13.5 C 10.1133,15.0879 12.1133,16.0879 14.5,16.5C 14.1667,17.5 13.5,18.1667 12.5,18.5C 10.2972,18.3964 8.29719,17.7298 6.5,16.5C 6.93205,15.2905 7.59872,14.2905 8.5,13.5 Z"/></g>
<g><path style="opacity:0.943" fill="#5f39a4" d="M 6.5,16.5 C 8.29719,17.7298 10.2972,18.3964 12.5,18.5C 12.5,19.1667 12.5,19.8333 12.5,20.5C 10.5,20.1667 8.5,19.8333 6.5,19.5C 6.5,18.5 6.5,17.5 6.5,16.5 Z"/></g>
<g><path style="opacity:1" fill="#5f458c" d="M 44.5,16.5 C 46.5786,16.9707 48.5786,17.6373 50.5,18.5C 50.5,19.1667 50.5,19.8333 50.5,20.5C 48.5,20.1667 46.5,19.8333 44.5,19.5C 44.5,18.5 44.5,17.5 44.5,16.5 Z"/></g>
<g><path style="opacity:0.911" fill="#5f3c9f" d="M 19.5,18.5 C 21.9029,18.448 24.2362,18.7814 26.5,19.5C 26.5,20.5 26.5,21.5 26.5,22.5C 24.2278,21.6814 21.8945,21.0147 19.5,20.5C 19.5,19.8333 19.5,19.1667 19.5,18.5 Z"/></g>
<g><path style="opacity:0.883" fill="#5f4c7f" d="M 71.5,18.5 C 75.1359,19.3255 78.8026,19.9922 82.5,20.5C 84.1667,21.5 85.5,22.8333 86.5,24.5C 83.1667,23.8333 79.8333,23.1667 76.5,22.5C 74.6115,21.396 72.9448,20.0627 71.5,18.5 Z"/></g>
<g><path style="opacity:0.881" fill="#5d16eb" d="M 314.5,18.5 C 334.11,19.038 340.943,28.7047 335,47.5C 327.625,57.6977 318.125,60.1977 306.5,55C 300.247,49.1712 298.08,42.0046 300,33.5C 301.645,25.3561 306.478,20.3561 314.5,18.5 Z M 316.5,21.5 C 325.926,22.8047 330.592,28.3047 330.5,38C 330.103,44.556 327.437,49.8893 322.5,54C 314.275,55.8047 309.108,52.638 307,44.5C 304.727,34.4003 307.894,26.7336 316.5,21.5 Z"/></g>
<g><path style="opacity:0.896" fill="#5f36aa" d="M 6.5,19.5 C 8.5,19.8333 10.5,20.1667 12.5,20.5C 13.1098,21.391 13.4431,22.391 13.5,23.5C 11.139,23.3259 8.80562,22.9926 6.5,22.5C 5.37505,21.3478 5.37505,20.3478 6.5,19.5 Z"/></g>
<g><path style="opacity:0.914" fill="#5f4293" d="M 44.5,19.5 C 46.5,19.8333 48.5,20.1667 50.5,20.5C 52.8884,22.2003 55.5551,23.5336 58.5,24.5C 58.5654,24.9382 58.3988,25.2716 58,25.5C 53.5327,24.0911 49.0327,22.7577 44.5,21.5C 44.5,20.8333 44.5,20.1667 44.5,19.5 Z"/></g>
<g><path style="opacity:0.862" fill="#5d16eb" d="M 116.5,19.5 C 119.119,19.2317 121.619,19.565 124,20.5C 127.004,29.5109 130.004,38.5109 133,47.5C 134.833,42 136.667,36.5 138.5,31C 137.068,27.539 135.735,24.039 134.5,20.5C 136.833,19.1667 139.167,19.1667 141.5,20.5C 144.568,29.5377 147.735,38.5377 151,47.5C 154,38.5 157,29.5 160,20.5C 161.388,19.4464 162.888,19.2797 164.5,20C 159.789,32.6364 154.789,45.1364 149.5,57.5C 146.134,51.0979 143.134,44.4312 140.5,37.5C 137.709,43.7048 135.209,50.0382 133,56.5C 132.107,57.7112 131.274,57.7112 130.5,56.5C 125.542,44.2556 120.876,31.9223 116.5,19.5 Z"/></g>
<g><path style="opacity:0.893" fill="#5d17eb" d="M 176.5,19.5 C 184.167,19.5 191.833,19.5 199.5,19.5C 199.5,20.8333 199.5,22.1667 199.5,23.5C 193.855,22.8658 188.189,22.5324 182.5,22.5C 182.5,26.8333 182.5,31.1667 182.5,35.5C 186.833,35.5 191.167,35.5 195.5,35.5C 195.5,36.5 195.5,37.5 195.5,38.5C 191.167,38.5 186.833,38.5 182.5,38.5C 182.5,43.5 182.5,48.5 182.5,53.5C 188.172,53.2401 193.839,52.9068 199.5,52.5C 199.5,53.8333 199.5,55.1667 199.5,56.5C 191.833,56.5 184.167,56.5 176.5,56.5C 176.5,44.1667 176.5,31.8333 176.5,19.5 Z"/></g>
<g><path style="opacity:0.9" fill="#5d16eb" d="M 215.5,19.5 C 217.5,19.5 219.5,19.5 221.5,19.5C 221.334,25.1764 221.501,30.8431 222,36.5C 226.8,30.6983 231.967,25.1983 237.5,20C 239.167,19.3333 240.833,19.3333 242.5,20C 236.985,25.348 231.652,30.848 226.5,36.5C 232.652,43.1522 238.985,49.6522 245.5,56C 242.706,57.5569 239.706,57.8902 236.5,57C 231.309,51.4433 226.476,45.61 222,39.5C 221.501,45.1569 221.334,50.8236 221.5,56.5C 219.5,56.5 217.5,56.5 215.5,56.5C 215.5,44.1667 215.5,31.8333 215.5,19.5 Z"/></g>
<g><path style="opacity:0.862" fill="#5d17ea" d="M 256.5,19.5 C 258.527,19.3379 260.527,19.5045 262.5,20C 269.12,28.0755 275.62,36.2422 282,44.5C 282.5,36.1733 282.666,27.84 282.5,19.5C 283.5,19.5 284.5,19.5 285.5,19.5C 285.832,32.1842 285.499,44.8508 284.5,57.5C 276.507,48.0027 268.674,38.3361 261,28.5C 260.5,37.8274 260.334,47.1607 260.5,56.5C 259.167,56.5 257.833,56.5 256.5,56.5C 256.5,44.1667 256.5,31.8333 256.5,19.5 Z"/></g>
<g><path style="opacity:0.869" fill="#5d16eb" d="M 346.5,19.5 C 348.924,19.1924 351.257,19.5258 353.5,20.5C 356.105,29.315 359.105,37.9817 362.5,46.5C 368.436,37.7823 368.769,28.949 363.5,20C 366.146,19.5026 368.813,19.3359 371.5,19.5C 374.226,28.845 377.059,38.1783 380,47.5C 383.197,38.9083 386.197,30.2416 389,21.5C 390.153,19.503 391.653,19.1696 393.5,20.5C 388.867,32.7581 384.534,45.0915 380.5,57.5C 379.325,57.719 378.325,57.3857 377.5,56.5C 374.902,49.8721 372.402,43.2054 370,36.5C 367.388,42.7245 365.055,49.0578 363,55.5C 362.29,56.9733 361.124,57.6399 359.5,57.5C 355.167,44.8333 350.833,32.1667 346.5,19.5 Z"/></g>
<g><path style="opacity:0.871" fill="#5f39a4" d="M 19.5,20.5 C 21.8945,21.0147 24.2278,21.6814 26.5,22.5C 26.6716,23.4916 26.3382,24.1583 25.5,24.5C 23.4214,24.0293 21.4214,23.3627 19.5,22.5C 19.5,21.8333 19.5,21.1667 19.5,20.5 Z"/></g>
<g><path style="opacity:0.957" fill="#5f3f98" d="M 44.5,21.5 C 49.0327,22.7577 53.5327,24.0911 58,25.5C 58.3988,25.2716 58.5654,24.9382 58.5,24.5C 62.3696,25.2633 65.3696,27.2633 67.5,30.5C 58.2862,27.6576 48.9529,25.3243 39.5,23.5C 41.1667,22.8333 42.8333,22.1667 44.5,21.5 Z"/></g>
<g><path style="opacity:0.938" fill="#5f33b1" d="M 6.5,22.5 C 8.80562,22.9926 11.139,23.3259 13.5,23.5C 14.8333,23.5 16.1667,23.5 17.5,23.5C 19.2057,25.5358 21.539,26.5358 24.5,26.5C 24.1667,27.5 23.5,28.1667 22.5,28.5C 17.3997,27.9747 12.3997,26.9747 7.5,25.5C 6.59603,24.791 6.26269,23.791 6.5,22.5 Z"/></g>
<g><path style="opacity:0.915" fill="#5f4986" d="M 76.5,22.5 C 79.8333,23.1667 83.1667,23.8333 86.5,24.5C 87.6005,25.6049 88.2671,26.9382 88.5,28.5C 85.2748,27.193 81.9415,26.193 78.5,25.5C 77.8333,24.5 77.1667,23.5 76.5,22.5 Z"/></g>
<g><path style="opacity:0.938" fill="#5f36ab" d="M 19.5,22.5 C 21.4214,23.3627 23.4214,24.0293 25.5,24.5C 25.6716,25.4916 25.3382,26.1583 24.5,26.5C 21.539,26.5358 19.2057,25.5358 17.5,23.5C 18.1667,23.1667 18.8333,22.8333 19.5,22.5 Z"/></g>
<g><path style="opacity:0.945" fill="#5f3c9f" d="M 39.5,23.5 C 48.9529,25.3243 58.2862,27.6576 67.5,30.5C 68.8333,31.1667 69.8333,32.1667 70.5,33.5C 66.1259,32.6564 61.7925,31.6564 57.5,30.5C 54.5,29.8333 51.5,29.1667 48.5,28.5C 44.5,27.1667 40.5,25.8333 36.5,24.5C 37.209,23.596 38.209,23.2627 39.5,23.5 Z"/></g>
<g><path style="opacity:0.909" fill="#5f39a5" d="M 36.5,24.5 C 40.5,25.8333 44.5,27.1667 48.5,28.5C 46.0971,28.448 43.7638,28.7814 41.5,29.5C 38.7458,28.0541 35.7458,27.0541 32.5,26.5C 33.5137,25.3263 34.847,24.6596 36.5,24.5 Z"/></g>
<g><path style="opacity:0.858" fill="#5f2fb9" d="M 7.5,25.5 C 12.3997,26.9747 17.3997,27.9747 22.5,28.5C 19.0868,30.0652 15.4202,31.0652 11.5,31.5C 9.5,30.8333 7.5,30.1667 5.5,29.5C 6.16667,28.1667 6.83333,26.8333 7.5,25.5 Z"/></g>
<g><path style="opacity:0.878" fill="#5f458c" d="M 78.5,25.5 C 81.9415,26.193 85.2748,27.193 88.5,28.5C 91.5395,29.2784 94.2062,30.6117 96.5,32.5C 91.4565,31.3225 86.4565,29.9892 81.5,28.5C 80.1667,27.8333 79.1667,26.8333 78.5,25.5 Z"/></g>
<g><path style="opacity:0.941" fill="#5f36ab" d="M 32.5,26.5 C 35.7458,27.0541 38.7458,28.0541 41.5,29.5C 40.2921,30.2341 38.9587,30.5674 37.5,30.5C 34.904,29.9451 32.5707,28.9451 30.5,27.5C 30.8417,26.6618 31.5084,26.3284 32.5,26.5 Z"/></g>
<g><path style="opacity:0.867" fill="#5f33b1" d="M 30.5,27.5 C 32.5707,28.9451 34.904,29.9451 37.5,30.5C 36.7095,31.4013 35.7095,32.0679 34.5,32.5C 31.9333,31.525 29.2666,30.8583 26.5,30.5C 27.795,29.5116 29.1283,28.5116 30.5,27.5 Z"/></g>
<g><path style="opacity:0.962" fill="#5f4292" d="M 81.5,28.5 C 86.4565,29.9892 91.4565,31.3225 96.5,32.5C 97.5,32.8333 98.1667,33.5 98.5,34.5C 98.44,35.0431 98.1067,35.3764 97.5,35.5C 92.4273,33.6364 87.4273,32.6364 82.5,32.5C 82.1667,31.1667 81.8333,29.8333 81.5,28.5 Z"/></g>
<g><path style="opacity:0.866" fill="#5f3aa5" d="M 57.5,30.5 C 61.7925,31.6564 66.1259,32.6564 70.5,33.5C 71.9063,33.9731 72.573,34.9731 72.5,36.5C 69.5739,35.5392 66.5739,34.8726 63.5,34.5C 61.2228,33.5514 59.2228,32.2181 57.5,30.5 Z"/></g>
<g><path style="opacity:0.929" fill="#5f3e9b" d="M 98.5,34.5 C 100.163,36.4385 100.829,38.7718 100.5,41.5C 98.1055,40.9853 95.7722,40.3186 93.5,39.5C 91.6164,35.9828 89.2831,35.6494 86.5,38.5C 84.7857,37.2616 82.7857,36.595 80.5,36.5C 80.7329,34.9382 81.3995,33.6049 82.5,32.5C 87.4273,32.6364 92.4273,33.6364 97.5,35.5C 98.1067,35.3764 98.44,35.0431 98.5,34.5 Z"/></g>
<g><path style="opacity:0.967" fill="#5e28c8" d="M 5.5,29.5 C 7.5,30.1667 9.5,30.8333 11.5,31.5C 11.1667,32.8333 10.8333,34.1667 10.5,35.5C 8.09709,35.552 5.76375,35.2186 3.5,34.5C 3.89254,32.7162 4.5592,31.0495 5.5,29.5 Z"/></g>
<g><path style="opacity:0.896" fill="#5f2ebc" d="M 26.5,30.5 C 29.2666,30.8583 31.9333,31.525 34.5,32.5C 32.8577,33.803 31.1911,35.1363 29.5,36.5C 27.6976,35.5418 25.6976,34.8751 23.5,34.5C 24.5,33.1667 25.5,31.8333 26.5,30.5 Z"/></g>
<g><path style="opacity:0.919" fill="#5f36ab" d="M 63.5,34.5 C 66.5739,34.8726 69.5739,35.5392 72.5,36.5C 73.4013,37.2905 74.0679,38.2905 74.5,39.5C 71.4606,38.99 68.4606,38.3234 65.5,37.5C 64.5987,36.7095 63.9321,35.7095 63.5,34.5 Z"/></g>
<g><path style="opacity:0.975" fill="#5e28c8" d="M 23.5,34.5 C 25.6976,34.8751 27.6976,35.5418 29.5,36.5C 29.2671,38.0618 28.6005,39.3951 27.5,40.5C 25.3024,40.1249 23.3024,39.4582 21.5,38.5C 21.6596,36.847 22.3263,35.5137 23.5,34.5 Z"/></g>
<g><path style="opacity:0.88" fill="#5f3aa4" d="M 80.5,36.5 C 82.7857,36.595 84.7857,37.2616 86.5,38.5C 86.5,39.1667 86.5,39.8333 86.5,40.5C 84.2986,39.4336 81.9653,38.767 79.5,38.5C 79.3284,37.5084 79.6618,36.8417 80.5,36.5 Z"/></g>
<g><path style="opacity:0.957" fill="#5e21d5" d="M 3.5,34.5 C 5.76375,35.2186 8.09709,35.552 10.5,35.5C 9.5592,37.0495 8.89254,38.7162 8.5,40.5C 6.13895,40.3259 3.80562,39.9926 1.5,39.5C 1.79586,37.597 2.46253,35.9303 3.5,34.5 Z"/></g>
<g><path style="opacity:0.87" fill="#5f33b1" d="M 65.5,37.5 C 68.4606,38.3234 71.4606,38.99 74.5,39.5C 75.1098,40.391 75.4431,41.391 75.5,42.5C 73.1944,42.0074 70.861,41.6741 68.5,41.5C 67.5116,40.205 66.5116,38.8717 65.5,37.5 Z"/></g>
<g><path style="opacity:0.882" fill="#5f36ab" d="M 79.5,38.5 C 81.9653,38.767 84.2986,39.4336 86.5,40.5C 86.5,41.1667 86.5,41.8333 86.5,42.5C 84.1944,42.0074 81.861,41.6741 79.5,41.5C 79.5,40.5 79.5,39.5 79.5,38.5 Z"/></g>
<g><path style="opacity:0.875" fill="#5f39a5" d="M 93.5,39.5 C 95.7722,40.3186 98.1055,40.9853 100.5,41.5C 100.672,42.4916 100.338,43.1583 99.5,43.5C 97.5,43.1667 95.5,42.8333 93.5,42.5C 93.5,41.5 93.5,40.5 93.5,39.5 Z"/></g>
<g><path style="opacity:0.899" fill="#5e22d4" d="M 21.5,38.5 C 23.3024,39.4582 25.3024,40.1249 27.5,40.5C 27.0113,41.9952 26.3446,43.3285 25.5,44.5C 23.4352,44.4828 21.4352,44.1495 19.5,43.5C 19.4021,41.4471 20.0687,39.7804 21.5,38.5 Z"/></g>
<g><path style="opacity:0.955" fill="#5f2ac3" d="M 57.5,45.5 C 51.7922,44.323 46.1255,42.9897 40.5,41.5C 40.9175,40.7784 41.5842,40.2784 42.5,40C 45.8333,39.3333 49.1667,39.3333 52.5,40C 55.079,41.0757 56.7457,42.909 57.5,45.5 Z"/></g>
<g><path style="opacity:0.971" fill="#5e27ca" d="M 40.5,41.5 C 46.1255,42.9897 51.7922,44.323 57.5,45.5C 58.4013,46.2905 59.0679,47.2905 59.5,48.5C 56.4606,47.99 53.4606,47.3234 50.5,46.5C 49.1667,46.1667 47.8333,45.8333 46.5,45.5C 43.8333,44.8333 41.1667,44.1667 38.5,43.5C 38.8333,42.5 39.5,41.8333 40.5,41.5 Z"/></g>
<g><path style="opacity:0.93" fill="#5f34b0" d="M 79.5,41.5 C 81.861,41.6741 84.1944,42.0074 86.5,42.5C 88.8333,43.8333 91.1667,43.8333 93.5,42.5C 95.5,42.8333 97.5,43.1667 99.5,43.5C 98.9202,45.7488 97.5869,47.4154 95.5,48.5C 90.7285,46.722 85.7285,45.3887 80.5,44.5C 79.8902,43.609 79.5569,42.609 79.5,41.5 Z"/></g>
<g><path style="opacity:0.861" fill="#5f2ebc" d="M 68.5,41.5 C 70.861,41.6741 73.1944,42.0074 75.5,42.5C 76.3007,44.0418 76.634,45.7085 76.5,47.5C 74.139,47.3259 71.8056,46.9926 69.5,46.5C 68.962,44.8828 68.6287,43.2161 68.5,41.5 Z"/></g>
<g><path style="opacity:0.942" fill="#5e1ae6" d="M 1.5,39.5 C 3.80562,39.9926 6.13895,40.3259 8.5,40.5C 7.40656,44.3939 6.7399,48.3939 6.5,52.5C 4.42136,52.0293 2.42136,51.3627 0.5,50.5C 0.423047,46.7852 0.756381,43.1185 1.5,39.5 Z"/></g>
<g><path style="opacity:0.927" fill="#5f2fb9" d="M 80.5,44.5 C 85.7285,45.3887 90.7285,46.722 95.5,48.5C 89.3063,51.9423 84.3063,50.609 80.5,44.5 Z"/></g>
<g><path style="opacity:0.955" fill="#5e1be1" d="M 19.5,43.5 C 21.4352,44.1495 23.4352,44.4828 25.5,44.5C 25.1667,46.5 24.8333,48.5 24.5,50.5C 22.5648,49.8505 20.5648,49.5172 18.5,49.5C 18.2053,47.2646 18.5386,45.2646 19.5,43.5 Z"/></g>
<g><path style="opacity:0.84" fill="#5e21d5" d="M 38.5,43.5 C 41.1667,44.1667 43.8333,44.8333 46.5,45.5C 44.5,46.8333 42.8333,48.5 41.5,50.5C 39.4939,49.5149 37.8273,48.1816 36.5,46.5C 36.427,44.9731 37.0937,43.9731 38.5,43.5 Z"/></g>
<g><path style="opacity:0.907" fill="#5e23d0" d="M 50.5,46.5 C 53.4606,47.3234 56.4606,47.99 59.5,48.5C 59.5,49.5 59.5,50.5 59.5,51.5C 57.1256,50.3139 54.7922,50.3139 52.5,51.5C 52.6085,49.4862 51.9418,47.8195 50.5,46.5 Z"/></g>
<g><path style="opacity:0.904" fill="#5e18e9" d="M 18.5,49.5 C 20.5648,49.5172 22.5648,49.8505 24.5,50.5C 24.5,51.8333 24.5,53.1667 24.5,54.5C 22.5786,53.6373 20.5786,52.9707 18.5,52.5C 17.1667,51.5 17.1667,50.5 18.5,49.5 Z"/></g>
<g><path style="opacity:0.985" fill="#5e28c8" d="M 69.5,46.5 C 71.8056,46.9926 74.139,47.3259 76.5,47.5C 76.5,49.5 76.5,51.5 76.5,53.5C 74.5,52.8333 72.5,52.1667 70.5,51.5C 70.3713,49.7839 70.038,48.1172 69.5,46.5 Z"/></g>
<g><path style="opacity:0.885" fill="#5e1be2" d="M 36.5,46.5 C 37.8273,48.1816 39.4939,49.5149 41.5,50.5C 41.8925,52.2838 42.5592,53.9505 43.5,55.5C 40.8877,54.6295 38.221,53.9628 35.5,53.5C 35.1984,50.9407 35.5318,48.6074 36.5,46.5 Z"/></g>
<g><path style="opacity:0.933" fill="#6222df" d="M 0.5,50.5 C 2.42136,51.3627 4.42136,52.0293 6.5,52.5C 6.55688,53.609 6.89022,54.609 7.5,55.5C 5.09709,55.552 2.76375,55.2186 0.5,54.5C 0.5,53.1667 0.5,51.8333 0.5,50.5 Z"/></g>
<g><path style="opacity:1" fill="#601de4" d="M 18.5,52.5 C 20.5786,52.9707 22.5786,53.6373 24.5,54.5C 25.2341,55.7079 25.5674,57.0413 25.5,58.5C 23.2362,57.7814 20.9029,57.448 18.5,57.5C 18.5,55.8333 18.5,54.1667 18.5,52.5 Z"/></g>
<g><path style="opacity:0.971" fill="#5d1edb" d="M 59.5,51.5 C 59.7678,53.099 59.4345,54.4324 58.5,55.5C 56.3792,55.6747 54.3792,55.3414 52.5,54.5C 52.5,53.5 52.5,52.5 52.5,51.5C 54.7922,50.3139 57.1256,50.3139 59.5,51.5 Z"/></g>
<g><path style="opacity:0.976" fill="#5e18e8" d="M 35.5,53.5 C 38.221,53.9628 40.8877,54.6295 43.5,55.5C 46.737,57.0146 49.737,56.6813 52.5,54.5C 54.3792,55.3414 56.3792,55.6747 58.5,55.5C 58.2283,58.7322 56.5616,60.7322 53.5,61.5C 47.8737,60.0101 42.2071,58.6768 36.5,57.5C 35.7659,56.2921 35.4326,54.9587 35.5,53.5 Z"/></g>
<g><path style="opacity:0.842" fill="#5e21d5" d="M 70.5,51.5 C 72.5,52.1667 74.5,52.8333 76.5,53.5C 76.5,55.1667 76.5,56.8333 76.5,58.5C 74.1667,57.8333 71.8333,57.1667 69.5,56.5C 70.038,54.8828 70.3713,53.2161 70.5,51.5 Z"/></g>
<g><path style="opacity:0.901" fill="#6428d9" d="M 0.5,54.5 C 2.76375,55.2186 5.09709,55.552 7.5,55.5C 7.5,57.1667 7.5,58.8333 7.5,60.5C 5.24873,59.3052 2.9154,58.3052 0.5,57.5C 0.5,56.5 0.5,55.5 0.5,54.5 Z"/></g>
<g><path style="opacity:0.917" fill="#601de4" d="M 36.5,57.5 C 42.2071,58.6768 47.8737,60.0101 53.5,61.5C 46.8098,64.9477 41.1431,63.6144 36.5,57.5 Z"/></g>
<g><path style="opacity:0.914" fill="#662ed3" d="M 0.5,57.5 C 2.9154,58.3052 5.24873,59.3052 7.5,60.5C 8.40397,61.209 8.73731,62.209 8.5,63.5C 6.19438,63.0074 3.86105,62.6741 1.5,62.5C 0.962003,60.8828 0.628669,59.2161 0.5,57.5 Z"/></g>
<g><path style="opacity:0.969" fill="#5e1be1" d="M 69.5,56.5 C 71.8333,57.1667 74.1667,57.8333 76.5,58.5C 75.8333,60.1667 75.1667,61.8333 74.5,63.5C 72.4214,63.0293 70.4214,62.3627 68.5,61.5C 68.6287,59.7839 68.962,58.1172 69.5,56.5 Z"/></g>
<g><path style="opacity:0.862" fill="#6427da" d="M 18.5,57.5 C 20.9029,57.448 23.2362,57.7814 25.5,58.5C 26.5512,60.9287 27.8845,63.262 29.5,65.5C 26.5394,64.6766 23.5394,64.01 20.5,63.5C 19.6373,61.5786 18.9707,59.5786 18.5,57.5 Z"/></g>
<g><path style="opacity:0.903" fill="#5e17e9" d="M 68.5,61.5 C 70.4214,62.3627 72.4214,63.0293 74.5,63.5C 77.5396,64.6803 80.2063,66.347 82.5,68.5C 76.9063,67.7683 71.5729,66.435 66.5,64.5C 66.427,62.9731 67.0937,61.9731 68.5,61.5 Z"/></g>
<g><path style="opacity:0.941" fill="#6935cd" d="M 1.5,62.5 C 3.86105,62.6741 6.19438,63.0074 8.5,63.5C 9.4408,65.0495 10.1075,66.7162 10.5,68.5C 7.55367,68.1025 4.887,67.1025 2.5,65.5C 1.89022,64.609 1.55688,63.609 1.5,62.5 Z"/></g>
<g><path style="opacity:0.93" fill="#662fd3" d="M 20.5,63.5 C 23.5394,64.01 26.5394,64.6766 29.5,65.5C 30.9301,67.386 32.5968,69.0527 34.5,70.5C 28.3952,69.141 22.3952,67.4743 16.5,65.5C 17.5137,64.3263 18.847,63.6596 20.5,63.5 Z"/></g>
<g><path style="opacity:0.945" fill="#601de4" d="M 66.5,64.5 C 71.5729,66.435 76.9063,67.7683 82.5,68.5C 85.7322,68.7717 87.7322,70.4384 88.5,73.5C 83.9054,72.1848 79.2387,71.1848 74.5,70.5C 73.391,70.4431 72.391,70.1098 71.5,69.5C 69.3432,68.5933 67.0098,67.9267 64.5,67.5C 64.427,65.9731 65.0937,64.9731 66.5,64.5 Z"/></g>
<g><path style="opacity:0.949" fill="#6b3ac9" d="M 2.5,65.5 C 4.887,67.1025 7.55367,68.1025 10.5,68.5C 10.8333,68.5 11.1667,68.5 11.5,68.5C 14.096,69.0549 16.4293,70.0549 18.5,71.5C 18.5,72.1667 18.1667,72.5 17.5,72.5C 13.1115,70.566 8.44488,69.2327 3.5,68.5C 2.89022,67.609 2.55688,66.609 2.5,65.5 Z"/></g>
<g><path style="opacity:0.94" fill="#6c3dc5" d="M 3.5,68.5 C 8.44488,69.2327 13.1115,70.566 17.5,72.5C 15.9505,73.4408 14.2838,74.1075 12.5,74.5C 10.2278,73.6814 7.89449,73.0147 5.5,72.5C 4.32627,71.4863 3.6596,70.153 3.5,68.5 Z"/></g>
<g><path style="opacity:0.904" fill="#6222df" d="M 64.5,67.5 C 67.0098,67.9267 69.3432,68.5933 71.5,69.5C 70.1667,70.5 68.8333,71.5 67.5,72.5C 65.4855,71.0762 63.1522,70.4095 60.5,70.5C 61.4363,69.0256 62.7697,68.0256 64.5,67.5 Z"/></g>
<g><path style="opacity:0.969" fill="#6935cd" d="M 16.5,65.5 C 22.3952,67.4743 28.3952,69.141 34.5,70.5C 39.4937,73.0818 44.827,74.4151 50.5,74.5C 53.8497,75.5033 57.183,76.5033 60.5,77.5C 58.4907,79.0652 56.1573,80.0652 53.5,80.5C 45.4986,77.4129 37.1652,75.0796 28.5,73.5C 26.8143,71.9835 24.981,70.6502 23,69.5C 21.415,70.0439 19.915,70.7106 18.5,71.5C 16.4293,70.0549 14.096,69.0549 11.5,68.5C 12.6594,66.7497 14.326,65.7497 16.5,65.5 Z"/></g>
<g><path style="opacity:0.865" fill="#6429d9" d="M 60.5,70.5 C 63.1522,70.4095 65.4855,71.0762 67.5,72.5C 66.8333,73.8333 65.8333,74.8333 64.5,75.5C 62.4293,74.0549 60.096,73.0549 57.5,72.5C 57.9731,71.0937 58.9731,70.427 60.5,70.5 Z"/></g>
<g><path style="opacity:0.861" fill="#6e43bf" d="M 5.5,72.5 C 7.89449,73.0147 10.2278,73.6814 12.5,74.5C 9.18678,77.5082 6.85345,76.8416 5.5,72.5 Z"/></g>
<g><path style="opacity:0.855" fill="#6222df" d="M 74.5,70.5 C 79.2387,71.1848 83.9054,72.1848 88.5,73.5C 88.7373,74.791 88.404,75.791 87.5,76.5C 85.139,76.3259 82.8056,75.9926 80.5,75.5C 78.5,73.8333 76.5,72.1667 74.5,70.5 Z"/></g>
<g><path style="opacity:0.888" fill="#662fd3" d="M 57.5,72.5 C 60.096,73.0549 62.4293,74.0549 64.5,75.5C 63.4863,76.6737 62.153,77.3404 60.5,77.5C 57.183,76.5033 53.8497,75.5033 50.5,74.5C 52.5994,73.3882 54.9327,72.7215 57.5,72.5 Z"/></g>
<g><path style="opacity:0.891" fill="#6b3bc6" d="M 28.5,73.5 C 37.1652,75.0796 45.4986,77.4129 53.5,80.5C 45.2955,81.5377 37.6289,80.0377 30.5,76C 29.6195,75.2917 28.9528,74.4584 28.5,73.5 Z"/></g>
<g><path style="opacity:0.924" fill="#6429d9" d="M 80.5,75.5 C 82.8056,75.9926 85.139,76.3259 87.5,76.5C 86.9744,78.2303 85.9744,79.5637 84.5,80.5C 82.5739,79.5139 80.5739,78.5139 78.5,77.5C 78.8333,76.5 79.5,75.8333 80.5,75.5 Z"/></g>
<g><path style="opacity:0.913" fill="#662ed3" d="M 78.5,77.5 C 80.5739,78.5139 82.5739,79.5139 84.5,80.5C 83.8333,81.8333 82.8333,82.8333 81.5,83.5C 79.9275,82.3127 78.2608,81.3127 76.5,80.5C 77.1667,79.5 77.8333,78.5 78.5,77.5 Z"/></g>
<g><path style="opacity:0.951" fill="#6934cd" d="M 76.5,80.5 C 78.2608,81.3127 79.9275,82.3127 81.5,83.5C 81.5,84.8333 80.8333,85.5 79.5,85.5C 76.7718,85.8294 74.4385,85.1628 72.5,83.5C 73.795,82.5116 75.1283,81.5116 76.5,80.5 Z"/></g>
<g><path style="opacity:0.729" fill="#5d16ea" d="M 151.5,83.5 C 154.685,83.0196 157.519,83.6863 160,85.5C 159.716,88.409 159.883,91.2423 160.5,94C 159.5,94.6667 158.5,94.6667 157.5,94C 156.692,92.2942 155.359,91.4609 153.5,91.5C 153.719,92.675 153.386,93.675 152.5,94.5C 151.511,90.8927 151.177,87.226 151.5,83.5 Z M 153.5,85.5 C 156.5,85.1667 157.833,86.5 157.5,89.5C 156.167,89.5 154.833,89.5 153.5,89.5C 153.5,88.1667 153.5,86.8333 153.5,85.5 Z"/></g>
<g><path style="opacity:0.642" fill="#5e16ea" d="M 172.5,83.5 C 175.572,83.1826 178.572,83.5159 181.5,84.5C 179.604,85.4656 177.604,85.7989 175.5,85.5C 175.5,86.5 175.5,87.5 175.5,88.5C 182.049,88.9071 182.049,89.9071 175.5,91.5C 177.5,92.1667 179.5,92.8333 181.5,93.5C 178.572,94.4841 175.572,94.8174 172.5,94.5C 172.5,90.8333 172.5,87.1667 172.5,83.5 Z"/></g>
<g><path style="opacity:0.679" fill="#5e16eb" d="M 196.5,83.5 C 197.675,83.281 198.675,83.6143 199.5,84.5C 200.97,87.273 202.303,90.1063 203.5,93C 203.167,93.5 202.833,94 202.5,94.5C 199.5,91.8333 196.5,91.8333 193.5,94.5C 193.167,94 192.833,93.5 192.5,93C 193.984,89.8695 195.317,86.7029 196.5,83.5 Z M 197.5,87.5 C 200.377,89.8455 200.044,90.6789 196.5,90C 197.252,89.3292 197.586,88.4959 197.5,87.5 Z"/></g>
<g><path style="opacity:0.724" fill="#5e17eb" d="M 213.5,83.5 C 216.898,83.1796 220.232,83.513 223.5,84.5C 222.311,85.4287 220.978,85.762 219.5,85.5C 218.833,97.5 218.167,97.5 217.5,85.5C 215.517,85.8432 214.183,85.1765 213.5,83.5 Z"/></g>
<g><path style="opacity:0.709" fill="#5d15ec" d="M 237.5,83.5 C 244.693,82.8467 247.193,85.8467 245,92.5C 239.672,96.7674 235.838,95.6007 233.5,89C 234.036,86.4921 235.369,84.6587 237.5,83.5 Z M 238.5,85.5 C 242.976,85.8003 244.31,87.9669 242.5,92C 236.738,92.4178 235.404,90.2511 238.5,85.5 Z"/></g>
<g><path style="opacity:0.704" fill="#5d16eb" d="M 258.5,83.5 C 260.857,83.3367 263.19,83.5034 265.5,84C 266.624,84.8388 267.291,86.0055 267.5,87.5C 266.74,89.5965 266.74,91.5965 267.5,93.5C 267,93.8333 266.5,94.1667 266,94.5C 264.756,92.4236 262.923,91.4236 260.5,91.5C 260.719,92.675 260.386,93.675 259.5,94.5C 258.511,90.8927 258.177,87.226 258.5,83.5 Z M 260.5,85.5 C 267.085,86.9848 267.085,88.3182 260.5,89.5C 260.5,88.1667 260.5,86.8333 260.5,85.5 Z"/></g>
<g><path style="opacity:0.678" fill="#5d16eb" d="M 280.5,83.5 C 282.527,83.3379 284.527,83.5045 286.5,84C 286.957,84.414 287.291,84.914 287.5,85.5C 280.138,85.7079 279.971,87.0412 287,89.5C 286.788,95.953 283.954,97.1196 278.5,93C 279,92.5 279.5,92 280,91.5C 287.095,92.8433 287.262,92.1766 280.5,89.5C 279.306,87.4844 279.306,85.4844 280.5,83.5 Z"/></g>
<g><path style="opacity:0.704" fill="#5e17e9" d="M 328.5,83.5 C 329.5,83.5 330.5,83.5 331.5,83.5C 331.5,87.1667 331.5,90.8333 331.5,94.5C 330.5,94.5 329.5,94.5 328.5,94.5C 328.5,90.8333 328.5,87.1667 328.5,83.5 Z"/></g>
<g><path style="opacity:0.806" fill="#5e17eb" d="M 344.5,83.5 C 347.428,84.5914 349.594,86.5914 351,89.5C 351.495,87.5273 351.662,85.5273 351.5,83.5C 352.5,83.5 353.5,83.5 354.5,83.5C 354.5,87.1667 354.5,90.8333 354.5,94.5C 351.012,93.8566 348.512,91.8566 347,88.5C 346.808,90.5767 346.308,92.5767 345.5,94.5C 344.511,90.8927 344.177,87.226 344.5,83.5 Z"/></g>
<g><path style="opacity:0.665" fill="#5c16ec" d="M 369.5,83.5 C 371.792,83.2436 373.959,83.5769 376,84.5C 376.591,85.4835 376.257,86.1501 375,86.5C 371.869,85.1459 369.702,86.1459 368.5,89.5C 370.143,92.4947 372.477,93.1614 375.5,91.5C 376.386,92.325 376.719,93.325 376.5,94.5C 369.196,96.6087 366.029,93.9421 367,86.5C 367.698,85.3094 368.531,84.3094 369.5,83.5 Z"/></g>
<g><path style="opacity:0.604" fill="#7048ba" d="M 42.5,86.5 C 38.5,86.1667 34.5,85.8333 30.5,85.5C 33.1368,83.5726 36.1368,83.0726 39.5,84C 40.9423,84.3768 41.9423,85.2101 42.5,86.5 Z"/></g>
<g><path style="opacity:0.936" fill="#724fb3" d="M 30.5,85.5 C 35.3677,87.3067 40.3677,88.9734 45.5,90.5C 46.3382,90.8417 46.6716,91.5084 46.5,92.5C 44.1944,92.0074 41.861,91.6741 39.5,91.5C 38.2921,90.7659 36.9587,90.4326 35.5,90.5C 33.1124,89.6515 30.7791,88.6515 28.5,87.5C 28.8333,86.5 29.5,85.8333 30.5,85.5 Z"/></g>
<g><path style="opacity:0.958" fill="#714bb7" d="M 30.5,85.5 C 34.5,85.8333 38.5,86.1667 42.5,86.5C 44.4456,87.0347 45.4456,88.368 45.5,90.5C 40.3677,88.9734 35.3677,87.3067 30.5,85.5 Z"/></g>
<g><path style="opacity:0.912" fill="#6b3bc6" d="M 72.5,83.5 C 74.4385,85.1628 76.7718,85.8294 79.5,85.5C 78.8333,86.8333 77.8333,87.8333 76.5,88.5C 73.5176,88.0371 70.5176,87.7038 67.5,87.5C 68.9448,85.9373 70.6115,84.604 72.5,83.5 Z"/></g>
<g><path style="opacity:0.51" fill="#5e17eb" d="M 299.5,83.5 C 300.649,83.7911 301.316,84.6244 301.5,86C 301.167,86.8333 300.833,87.6667 300.5,88.5C 299.548,86.9547 299.215,85.288 299.5,83.5 Z"/></g>
<g><path style="opacity:0.89" fill="#7453af" d="M 28.5,87.5 C 30.7791,88.6515 33.1124,89.6515 35.5,90.5C 34.5,91.1667 33.5,91.8333 32.5,92.5C 30.5,92.1667 28.5,91.8333 26.5,91.5C 26.2291,89.6203 26.8958,88.287 28.5,87.5 Z"/></g>
<g><path style="opacity:0.871" fill="#6d40c1" d="M 67.5,87.5 C 70.5176,87.7038 73.5176,88.0371 76.5,88.5C 75.0552,90.0627 73.3885,91.396 71.5,92.5C 68.8539,90.7475 65.8539,89.7475 62.5,89.5C 63.7804,88.0687 65.4471,87.4021 67.5,87.5 Z"/></g>
<g><path style="opacity:0.725" fill="#775aa9" d="M 26.5,91.5 C 28.5,91.8333 30.5,92.1667 32.5,92.5C 32.5,93.5 32.5,94.5 32.5,95.5C 30.2714,95.3856 27.9381,95.3856 25.5,95.5C 25.2322,93.901 25.5655,92.5676 26.5,91.5 Z"/></g>
<g><path style="opacity:0.951" fill="#7453af" d="M 39.5,91.5 C 41.861,91.6741 44.1944,92.0074 46.5,92.5C 46.8333,92.5 47.1667,92.5 47.5,92.5C 51.6871,93.969 56.0204,95.3023 60.5,96.5C 58.9724,97.3092 57.3057,97.9759 55.5,98.5C 49.9345,97.7719 44.6012,96.1052 39.5,93.5C 39.5,92.8333 39.5,92.1667 39.5,91.5 Z"/></g>
<g><path style="opacity:0.934" fill="#724eb4" d="M 56.5,91.5 C 60.3968,92.0552 64.0635,93.0552 67.5,94.5C 65.2986,95.5664 62.9653,96.233 60.5,96.5C 56.0204,95.3023 51.6871,93.969 47.5,92.5C 50.4299,91.701 53.4299,91.3677 56.5,91.5 Z"/></g>
<g><path style="opacity:0.627" fill="#5e16ec" d="M 131.5,83.5 C 134.482,83.1044 137.149,83.7711 139.5,85.5C 137.587,86.0512 135.587,86.2179 133.5,86C 131.398,87.7328 131.065,89.7328 132.5,92C 134.557,92.3052 136.557,92.3052 138.5,92C 139.833,92.6667 139.833,93.3333 138.5,94C 133.436,96.2587 130.102,94.7587 128.5,89.5C 128.984,87.1992 129.984,85.1992 131.5,83.5 Z"/></g>
<g><path style="opacity:1" fill="#7048ba" d="M 62.5,89.5 C 65.8539,89.7475 68.8539,90.7475 71.5,92.5C 70.1667,93.1667 68.8333,93.8333 67.5,94.5C 64.0635,93.0552 60.3968,92.0552 56.5,91.5C 58.3024,90.5418 60.3024,89.8751 62.5,89.5 Z"/></g>
<g><path style="opacity:0.965" fill="#7961a2" d="M 32.5,95.5 C 34.1417,97.0808 36.1417,97.7475 38.5,97.5C 40.3024,98.4582 42.3024,99.1249 44.5,99.5C 43.8333,100.833 42.8333,101.833 41.5,102.5C 36.5597,101.015 31.5597,99.6813 26.5,98.5C 26.4431,97.391 26.1098,96.391 25.5,95.5C 27.9381,95.3856 30.2714,95.3856 32.5,95.5 Z"/></g>
<g><path style="opacity:1" fill="#7659a9" d="M 39.5,93.5 C 44.6012,96.1052 49.9345,97.7719 55.5,98.5C 51.7307,98.244 48.0641,98.5773 44.5,99.5C 42.3024,99.1249 40.3024,98.4582 38.5,97.5C 39.2341,96.2921 39.5674,94.9587 39.5,93.5 Z"/></g>
<g><path style="opacity:0.88" fill="#7b669d" d="M 26.5,98.5 C 31.5597,99.6813 36.5597,101.015 41.5,102.5C 35.352,105.945 30.352,104.612 26.5,98.5 Z"/></g>
</svg>
